<svg xmlns="http://www.w3.org/2000/svg" width="256" height="256" viewBox="0 0 100 100"><rect width="100" height="100" rx="20" fill="#040404"></rect><path fill="#fd0404" d="M43.67 29.88L43.67 29.88Q43.78 30.09 43.78 30.25Q43.78 30.41 43.88 30.62L43.88 30.62Q44.09 31.04 43.78 31.46Q43.46 31.88 43.15 31.67L43.15 31.67Q42.10 31.46 41.05 30.99Q40.00 30.51 38.95 30.09Q37.90 29.67 36.85 29.46Q35.80 29.25 34.85 29.57L34.85 29.57Q32.75 30.20 30.49 31.56Q28.24 32.93 26.08 34.98Q23.93 37.02 22.09 39.75Q20.26 42.48 19.00 45.84L19.00 45.84Q17.42 50.46 18.05 54.51Q18.68 58.55 20.94 61.28Q23.20 64.01 26.82 65.22Q30.44 66.42 35.06 65.48L35.06 65.48Q38.42 64.74 41.47 63.06Q44.51 61.38 47.14 59.60L47.14 59.60Q46.61 60.44 46.19 61.07Q45.77 61.70 44.93 62.54L44.93 62.54Q44.41 63.06 43.88 63.96Q43.36 64.85 42.83 65.37L42.83 65.37Q39.16 69.36 33.91 71.15L33.91 71.15Q32.75 71.57 31.91 71.62Q31.07 71.67 29.92 71.88L29.92 71.88Q28.24 71.88 26.56 71.99Q24.88 72.09 23.30 71.57L23.30 71.57Q18.68 69.99 15.43 65.48L15.43 65.48Q13.96 63.48 12.96 60.60Q11.96 57.71 11.70 54.51Q11.44 51.30 11.86 48.15Q12.28 45.00 13.64 42.27L13.64 42.27Q16.48 36.18 20.41 31.35Q24.35 26.52 29.81 24.63L29.81 24.63Q33.49 23.27 38.63 24.42L38.63 24.42Q39.89 24.95 41.47 26.52L41.47 26.52Q41.99 27.05 42.52 27.57Q43.04 28.10 43.57 29.04L43.57 29.04Q43.67 29.25 43.62 29.46Q43.57 29.67 43.67 29.88ZM83.05 49.52L83.05 49.52Q82.52 51.30 81.47 54.09Q80.42 56.87 79.11 60.07Q77.80 63.27 76.27 66.53Q74.75 69.78 73.18 72.41L73.18 72.41Q72.86 72.93 72.44 73.35Q72.02 73.77 71.81 74.19L71.81 74.19Q71.29 75.03 70.92 75.51Q70.55 75.98 70.13 76.08L70.13 76.08Q69.61 76.19 69.19 75.77Q68.77 75.35 68.14 74.82L68.14 74.82Q67.19 73.98 66.46 72.88Q65.72 71.78 65.09 70.73L65.09 70.73Q64.67 70.10 63.94 69.52Q63.20 68.94 62.99 68.21L62.99 68.21Q59.63 59.49 57.11 49.47Q54.59 39.44 52.70 29.88L52.70 29.88Q52.91 29.36 52.91 28.83Q52.91 28.31 53.33 28.41L53.33 28.41Q54.17 28.62 55.22 28.83Q56.27 29.04 56.27 29.88L56.27 29.88Q57.85 33.24 59.42 38.07Q61.00 42.90 62.52 48.21Q64.04 53.51 65.46 58.65Q66.88 63.80 68.14 67.68L68.14 67.68Q70.24 63.38 72.65 58.13Q75.07 52.88 77.69 47.37Q80.32 41.85 82.99 36.45Q85.67 31.04 88.40 26.31L88.40 26.31Q88.40 27.89 88.09 29.46Q87.77 31.04 87.25 32.72L87.25 32.72Q86.93 33.66 86.56 34.61Q86.20 35.55 85.88 36.60L85.88 36.60Q84.83 39.65 84.52 42.80Q84.20 45.95 83.05 49.52Z"></path></svg>